<svg version="1.0" xmlns="http://www.w3.org/2000/svg"
 viewBox="0 0 3309.000000 3332.000000"
 preserveAspectRatio="xMidYMid meet">

<g transform="translate(0.000000,3332.000000) scale(0.100000,-0.100000)"
fill="#000000" stroke="none">
<path d="M16035 32500 c-71 -5 -238 -13 -370 -20 -796 -38 -1693 -160 -2580
-351 -126 -27 -284 -63 -350 -80 -66 -17 -154 -39 -195 -49 -209 -52 -262 -66
-470 -127 -733 -213 -1298 -415 -2010 -716 -366 -155 -1124 -528 -1470 -724
-25 -14 -101 -57 -170 -95 -347 -196 -1095 -683 -1456 -949 -736 -543 -1268
-1003 -1915 -1656 -641 -648 -1108 -1201 -1635 -1943 -735 -1033 -1303 -2069
-1781 -3254 -644 -1593 -1005 -3197 -1123 -4981 -17 -254 -24 -1343 -11 -1612
23 -459 74 -1016 132 -1443 79 -581 164 -1033 309 -1635 10 -44 26 -111 34
-150 9 -38 20 -77 25 -85 5 -9 12 -31 16 -50 4 -19 35 -136 70 -260 219 -775
499 -1542 816 -2236 115 -253 444 -909 529 -1054 4 -8 39 -71 76 -140 203
-372 611 -1021 937 -1490 138 -198 508 -686 682 -900 576 -708 1256 -1411
1900 -1965 434 -372 798 -663 1140 -909 215 -155 708 -486 902 -606 109 -68
211 -131 226 -142 45 -31 402 -239 545 -317 309 -169 945 -452 1131 -503 101
-27 306 -117 351 -152 8 -7 42 -20 75 -30 33 -10 166 -59 295 -108 289 -111
664 -245 910 -326 249 -82 716 -222 738 -222 18 0 169 154 372 380 726 809
1114 1607 1254 2581 50 342 61 527 61 1019 0 507 -9 643 -56 873 -70 343 -192
646 -397 985 -116 190 -225 345 -498 708 -133 177 -271 364 -307 415 -303 436
-548 900 -782 1479 -206 511 -366 1140 -417 1640 -20 200 -23 275 -22 675 1
497 6 569 90 1120 51 339 163 779 259 1025 18 47 46 117 61 155 73 186 313
668 492 985 259 460 373 638 687 1070 476 656 685 905 1770 2110 716 795 760
846 976 1130 156 203 349 500 496 760 97 173 326 631 378 759 134 328 262 777
330 1152 59 326 60 337 60 739 -1 357 -2 389 -33 655 -45 383 -85 657 -132
897 -35 181 -164 712 -235 968 -14 52 -41 151 -60 220 -63 233 -179 548 -263
715 -43 86 -100 170 -141 209 -17 17 -31 33 -31 36 0 4 52 53 115 109 134 118
208 204 180 209 -29 6 -103 -27 -248 -110 -251 -143 -439 -231 -559 -258 -29
-7 -64 -17 -78 -22 -14 -5 -54 -16 -90 -23 -36 -7 -100 -22 -142 -34 -206 -54
-800 -91 -1468 -91 -293 0 -388 3 -435 15 -33 8 -79 14 -102 15 -79 0 -69 23
47 108 99 73 454 424 476 471 9 20 34 61 54 91 20 30 68 111 105 180 37 69
107 193 155 275 48 83 111 194 141 248 117 215 255 337 570 501 217 113 410
172 704 215 222 33 655 24 870 -18 240 -47 825 -336 1110 -549 114 -85 435
-402 539 -532 173 -217 354 -539 435 -772 48 -140 105 -412 125 -598 52 -471
45 -1066 -19 -1625 -39 -336 -138 -1038 -156 -1106 -5 -20 -11 -56 -13 -80 -4
-39 -18 -126 -71 -439 -34 -204 -89 -723 -120 -1140 -18 -241 -20 -848 -4
-1051 40 -515 170 -1134 344 -1639 129 -376 187 -513 352 -825 295 -559 511
-860 1137 -1589 584 -680 892 -1070 1157 -1468 449 -676 643 -1167 745 -1898
26 -181 26 -817 1 -1085 -29 -309 -91 -730 -143 -975 -119 -552 -373 -1355
-629 -1980 -185 -453 -397 -912 -822 -1775 -387 -785 -431 -881 -612 -1330
-157 -388 -306 -886 -391 -1305 -84 -419 -103 -638 -104 -1200 -1 -442 8 -599
45 -817 27 -164 58 -244 199 -532 l127 -258 179 -199 c99 -109 232 -261 297
-337 66 -75 160 -171 210 -213 108 -91 83 -91 367 -9 1325 382 2389 826 3555
1483 942 530 1865 1192 2696 1932 358 319 926 882 1200 1190 86 96 176 198
201 225 78 87 299 354 448 540 494 617 988 1350 1403 2080 306 540 602 1151
867 1795 250 607 513 1365 629 1815 12 44 33 121 46 170 36 128 126 496 179
730 147 657 247 1305 316 2040 47 510 51 609 57 1265 5 577 3 687 -16 1045
-12 220 -28 465 -36 545 -26 272 -56 535 -70 625 -7 50 -19 133 -25 185 -35
286 -165 1004 -231 1280 -116 481 -227 902 -289 1095 -16 50 -57 178 -91 285
-409 1300 -1059 2653 -1844 3835 -643 969 -1229 1681 -2071 2515 -409 405
-574 555 -1019 926 -449 375 -752 601 -1285 959 -580 390 -1073 676 -1710 995
-523 262 -729 354 -1320 590 -1297 519 -2692 870 -4070 1024 -537 60 -924 85
-1515 96 -546 11 -607 11 -800 0z"/>
</g>
</svg>
