<svg version="1.0" xmlns="http://www.w3.org/2000/svg"
viewBox="0 0 4000.000000 3000.000000"
 preserveAspectRatio="xMidYMid meet">

<g transform="translate(0.000000,3000.000000) scale(0.100000,-0.100000)"
fill="#000000" stroke="none">
<path d="M19466 28563 c-1 -2 -63 -5 -137 -7 -418 -15 -741 -41 -1074 -87 -44
-6 -111 -15 -150 -19 -38 -5 -86 -11 -105 -15 -19 -3 -64 -10 -100 -16 -114
-17 -328 -54 -400 -69 -25 -5 -83 -16 -130 -25 -96 -19 -136 -27 -235 -50 -38
-9 -95 -20 -125 -26 -30 -6 -64 -14 -75 -19 -11 -5 -40 -12 -65 -16 -25 -3
-49 -10 -55 -14 -5 -4 -32 -11 -60 -15 -27 -4 -54 -10 -60 -15 -5 -4 -28 -11
-50 -14 -22 -4 -62 -14 -90 -22 -27 -8 -72 -21 -100 -29 -105 -30 -231 -67
-255 -75 -14 -4 -72 -22 -130 -40 -58 -17 -112 -35 -120 -40 -9 -4 -31 -11
-50 -15 -19 -4 -48 -13 -65 -20 -16 -7 -73 -27 -125 -45 -52 -17 -104 -36
-115 -41 -11 -5 -65 -24 -120 -44 -55 -19 -109 -39 -120 -45 -11 -5 -85 -35
-165 -66 -80 -31 -173 -70 -208 -85 -34 -16 -65 -29 -69 -29 -3 0 -24 -9 -47
-19 -23 -11 -113 -52 -201 -92 -161 -72 -521 -249 -670 -329 -44 -24 -98 -52
-120 -63 -22 -11 -42 -23 -45 -27 -3 -4 -27 -18 -55 -32 -68 -34 -166 -90
-245 -139 -36 -23 -99 -62 -140 -87 -215 -130 -590 -378 -733 -484 -25 -18
-55 -41 -68 -50 -46 -33 -194 -143 -206 -153 -6 -5 -44 -35 -83 -65 -40 -30
-114 -89 -164 -130 -51 -41 -112 -91 -136 -110 -60 -48 -181 -150 -201 -169
-8 -9 -38 -35 -66 -58 -195 -166 -636 -596 -859 -839 -264 -289 -372 -414
-541 -626 -45 -57 -102 -127 -125 -157 -24 -29 -50 -63 -58 -75 -8 -11 -42
-57 -75 -101 -33 -44 -67 -90 -75 -102 -8 -11 -58 -81 -110 -155 -94 -131
-120 -169 -150 -214 -8 -12 -33 -49 -54 -81 -71 -105 -171 -261 -192 -298 -6
-11 -50 -83 -96 -160 -381 -626 -740 -1389 -1007 -2140 -60 -167 -180 -536
-187 -572 -1 -7 -9 -34 -17 -60 -8 -26 -30 -102 -47 -168 -18 -66 -38 -140
-45 -165 -13 -44 -74 -292 -100 -410 -18 -79 -106 -531 -110 -567 -2 -12 -6
-34 -9 -50 -4 -15 -8 -44 -11 -63 -2 -19 -9 -66 -15 -105 -23 -148 -31 -204
-46 -325 -23 -191 -58 -551 -68 -720 -20 -308 -26 -933 -12 -1265 7 -173 62
-823 76 -905 5 -30 15 -98 21 -150 37 -298 102 -668 174 -990 9 -41 22 -100
28 -130 7 -30 15 -59 18 -65 4 -5 10 -34 14 -62 4 -29 10 -55 15 -58 4 -3 11
-29 15 -60 3 -30 10 -57 15 -60 4 -2 11 -26 15 -51 4 -26 10 -54 15 -63 4 -9
18 -54 30 -101 22 -84 49 -177 75 -255 7 -22 25 -80 40 -130 15 -49 31 -99 35
-110 5 -11 16 -42 24 -70 26 -84 138 -403 156 -440 5 -11 25 -63 45 -115 20
-52 44 -115 55 -140 10 -25 33 -79 50 -120 42 -102 77 -182 112 -260 17 -36
44 -96 62 -135 60 -134 347 -700 357 -703 5 -2 9 -8 9 -14 0 -17 149 -276 294
-511 34 -54 75 -120 91 -148 65 -109 324 -495 410 -614 179 -245 231 -314 372
-495 13 -18 215 -263 245 -300 27 -32 209 -241 223 -256 5 -6 51 -55 100 -109
126 -138 131 -144 284 -299 147 -150 411 -403 531 -509 189 -168 605 -515 699
-582 15 -11 63 -47 106 -80 43 -33 90 -69 105 -80 16 -11 75 -54 132 -95 104
-75 556 -380 564 -380 2 0 49 -29 104 -65 55 -36 102 -65 106 -65 3 0 20 -11
38 -25 18 -14 35 -25 39 -25 3 0 53 -29 112 -65 59 -36 109 -65 110 -65 1 0
51 -28 111 -62 224 -127 801 -383 889 -394 34 -4 240 -96 248 -110 4 -8 18
-14 29 -14 12 0 96 -30 187 -66 276 -110 707 -262 964 -338 83 -25 172 -52
197 -60 25 -8 67 -20 94 -27 l50 -13 109 115 c541 564 837 1050 1006 1649 89
317 130 621 146 1075 7 214 -9 613 -30 725 -22 116 -54 251 -65 275 -5 11 -14
40 -21 65 -6 25 -14 50 -19 55 -4 6 -13 28 -20 50 -26 80 -124 271 -215 415
-87 140 -203 303 -367 515 -123 159 -233 311 -298 415 -5 8 -31 49 -58 90 -26
41 -69 113 -95 160 -27 47 -52 92 -57 100 -10 17 -104 206 -155 315 -46 97
-98 217 -129 300 -15 39 -31 79 -37 90 -17 35 -90 249 -100 290 -5 22 -14 49
-19 60 -5 11 -13 40 -19 65 -5 25 -19 81 -31 125 -24 93 -31 123 -59 265 -12
58 -26 125 -31 150 -5 25 -19 155 -30 290 -17 200 -20 289 -15 485 3 132 8
258 10 280 20 194 42 368 66 510 6 39 13 82 14 97 3 30 9 57 61 273 37 156
103 363 136 428 10 20 16 37 14 37 -11 0 189 422 266 560 14 25 43 79 65 120
22 41 54 99 72 128 17 29 31 54 31 56 0 2 18 34 40 70 22 36 40 69 40 72 0 4
11 22 25 40 14 18 25 36 25 39 0 4 13 25 29 48 24 35 71 106 116 176 24 38 69
101 120 171 31 41 63 86 73 100 21 32 137 188 177 240 17 22 55 71 85 111 162
211 422 516 705 829 33 36 110 122 170 190 61 68 164 183 230 255 66 73 167
185 225 250 58 66 130 146 160 180 82 90 160 182 216 255 103 133 150 196 167
220 30 44 131 194 142 212 142 231 187 310 293 523 120 239 144 295 208 480
58 169 64 190 69 218 3 14 9 37 14 49 5 13 18 64 30 113 12 50 26 108 33 130
6 22 12 51 14 63 1 13 7 45 12 70 19 88 40 219 49 302 2 19 6 125 8 235 5 200
-1 291 -50 715 -22 193 -47 352 -85 540 -5 25 -15 75 -22 112 -7 36 -16 70
-21 74 -4 4 -7 17 -7 30 0 12 -7 44 -15 70 -16 56 -62 237 -76 304 -5 25 -14
52 -18 60 -5 9 -12 36 -16 60 -4 25 -11 50 -15 55 -4 6 -11 28 -15 50 -7 40
-40 152 -55 190 -5 11 -14 38 -20 60 -6 22 -15 49 -20 60 -5 11 -27 67 -50
125 -59 148 -108 238 -156 286 l-42 40 87 75 c78 65 151 144 151 162 0 4 -15
4 -32 0 -31 -6 -78 -30 -238 -124 -138 -81 -325 -159 -381 -159 -10 0 -20 -4
-23 -9 -3 -5 -31 -12 -62 -16 -32 -4 -64 -10 -73 -15 -88 -44 -576 -80 -1109
-82 -244 0 -347 3 -355 11 -6 6 -30 11 -53 11 -23 0 -49 3 -57 6 -22 8 2 35
78 86 66 44 345 320 345 341 0 7 13 31 29 53 28 38 49 75 126 219 21 39 57
102 80 140 48 80 91 156 113 200 46 91 122 175 228 250 62 45 95 63 264 150
136 71 416 133 630 142 165 6 453 -17 535 -44 70 -22 192 -70 240 -93 160 -77
242 -119 325 -168 52 -32 102 -60 110 -65 8 -4 35 -23 60 -42 25 -19 61 -46
80 -59 53 -36 268 -250 346 -346 114 -138 189 -254 259 -400 65 -134 72 -150
85 -195 6 -22 15 -49 20 -60 9 -21 18 -59 51 -215 35 -169 60 -527 55 -770 -5
-194 -24 -482 -42 -615 -4 -27 -8 -63 -9 -80 -1 -16 -8 -70 -15 -120 -7 -49
-14 -101 -15 -115 -3 -26 -17 -129 -36 -260 -6 -41 -12 -86 -14 -100 -2 -14
-6 -38 -9 -55 -3 -16 -8 -48 -11 -70 -3 -22 -9 -55 -15 -74 -5 -19 -7 -37 -5
-41 2 -4 0 -22 -5 -41 -5 -19 -12 -56 -15 -83 -3 -27 -7 -51 -9 -55 -2 -3 -7
-33 -11 -65 -3 -33 -8 -63 -10 -66 -2 -4 -6 -27 -9 -51 -3 -24 -10 -80 -16
-124 -6 -44 -13 -98 -15 -120 -2 -22 -6 -60 -9 -85 -20 -191 -44 -467 -52
-615 -6 -122 -6 -477 1 -600 12 -217 58 -519 119 -785 8 -36 20 -87 26 -115 6
-27 15 -59 20 -70 4 -11 13 -38 18 -60 26 -100 43 -162 52 -180 5 -11 14 -40
21 -65 6 -25 14 -49 19 -55 4 -5 10 -23 14 -40 4 -16 16 -48 27 -72 10 -23 19
-46 19 -51 0 -5 14 -40 30 -78 17 -38 39 -87 48 -108 46 -105 170 -341 253
-478 168 -278 315 -477 599 -808 64 -74 127 -148 140 -164 14 -16 36 -41 49
-55 12 -14 39 -46 60 -70 20 -24 45 -53 56 -66 11 -12 46 -53 77 -91 31 -38
92 -112 135 -164 43 -52 92 -113 108 -134 17 -22 49 -65 73 -95 24 -31 63 -83
88 -116 24 -33 50 -67 56 -75 23 -27 152 -218 243 -360 49 -77 96 -160 148
-265 108 -214 138 -290 210 -520 43 -139 91 -389 107 -565 10 -99 13 -436 5
-545 -6 -91 -15 -209 -21 -260 -3 -27 -6 -66 -8 -85 -6 -68 -22 -173 -51 -350
-29 -175 -34 -202 -41 -222 -3 -11 -7 -30 -9 -41 -1 -12 -7 -40 -13 -62 -20
-76 -43 -166 -47 -187 -3 -12 -11 -42 -19 -67 -7 -25 -22 -75 -31 -111 -21
-76 -52 -178 -72 -236 -7 -23 -16 -50 -18 -60 -2 -11 -29 -91 -60 -179 -31
-88 -60 -171 -65 -185 -12 -35 -64 -176 -88 -235 -11 -27 -34 -84 -50 -125
-16 -41 -47 -113 -67 -160 -84 -192 -158 -358 -180 -405 -13 -27 -40 -86 -61
-130 -75 -163 -186 -390 -383 -786 -110 -223 -201 -408 -201 -413 0 -4 -20
-49 -44 -99 -24 -51 -51 -113 -59 -138 -9 -25 -29 -75 -46 -110 -46 -97 -193
-514 -207 -588 -3 -14 -7 -27 -9 -31 -12 -19 -101 -373 -110 -438 -2 -13 -8
-45 -14 -70 -87 -403 -95 -1217 -15 -1536 19 -77 49 -147 129 -305 l104 -206
162 -180 c89 -99 187 -211 217 -248 31 -38 89 -96 129 -129 l74 -60 52 12 c29
6 63 15 77 20 14 5 59 18 100 30 101 28 206 59 255 75 22 8 81 26 130 40 50
15 99 31 110 36 11 5 74 26 140 48 136 44 293 101 440 159 55 22 141 56 190
75 88 35 150 61 230 97 22 10 78 35 125 55 477 210 1133 564 1540 830 36 23
106 68 155 100 50 33 95 63 100 68 6 5 29 21 52 35 99 64 566 406 649 475 10
9 60 49 109 88 115 92 169 137 268 224 44 39 103 90 131 114 256 220 788 746
947 936 18 22 63 72 99 110 64 69 249 290 382 456 257 321 538 719 779 1102
95 153 101 162 170 285 12 20 30 49 40 64 11 14 19 29 19 32 0 3 14 29 31 58
18 29 44 76 59 103 15 28 51 93 80 145 121 220 375 753 475 1000 24 58 61 148
82 200 132 320 286 758 385 1095 11 39 27 91 35 117 8 25 16 57 18 71 3 13 11
43 19 66 9 22 13 41 11 41 -2 0 2 18 10 40 14 40 53 197 100 400 45 196 53
233 65 295 6 33 16 80 22 105 5 25 14 69 19 98 5 28 13 76 18 105 19 103 39
223 46 272 4 28 9 59 11 70 49 321 96 779 119 1165 11 177 14 920 5 1085 -5
99 -14 268 -20 375 -6 107 -15 229 -20 270 -6 41 -17 143 -25 225 -8 83 -19
173 -24 200 -6 28 -13 75 -15 105 -5 51 -21 161 -46 308 -5 34 -14 88 -19 120
-14 79 -41 224 -70 367 -4 22 -14 69 -21 105 -7 36 -16 74 -21 85 -4 11 -10
38 -14 60 -3 22 -10 54 -15 70 -8 27 -31 116 -75 295 -34 141 -103 380 -115
402 -6 10 -10 24 -10 32 0 14 -132 424 -149 461 -5 11 -24 63 -41 115 -18 52
-38 109 -45 125 -7 17 -27 68 -45 115 -17 47 -43 110 -56 141 -13 31 -24 60
-24 63 0 4 -11 31 -24 59 -13 29 -40 93 -61 142 -238 569 -631 1296 -998 1845
-187 279 -337 490 -509 711 -24 30 -56 73 -73 95 -28 37 -253 310 -301 364
-81 93 -259 291 -359 399 -98 106 -432 438 -549 546 -60 55 -123 114 -141 130
-17 17 -101 89 -185 161 -486 413 -691 569 -1175 895 -160 108 -414 270 -502
320 -62 35 -98 56 -158 91 -85 50 -146 84 -260 145 -55 30 -111 61 -125 69
-27 16 -533 265 -590 291 -19 8 -44 20 -54 25 -75 39 -620 262 -851 348 -157
59 -547 190 -667 225 -137 39 -257 73 -323 91 -33 9 -80 22 -105 29 -25 7 -76
20 -115 29 -38 10 -95 23 -125 31 -89 22 -144 35 -166 40 -12 2 -66 13 -120
25 -55 12 -110 24 -124 26 -14 3 -32 7 -42 10 -9 2 -41 9 -72 14 -31 6 -82 15
-113 20 -32 6 -83 15 -113 20 -30 5 -82 14 -115 20 -138 24 -323 50 -545 75
-181 21 -203 23 -290 31 -113 10 -126 11 -250 18 -63 4 -124 9 -135 11 -51 10
-990 27 -999 18z"/>
</g>
</svg>
