<?xml version="1.0" encoding="UTF-8" standalone="no"?>
<!DOCTYPE svg PUBLIC "-//W3C//DTD SVG 1.1//EN" "http://www.w3.org/Graphics/SVG/1.1/DTD/svg11.dtd">
<svg version="1.1" xmlns="http://www.w3.org/2000/svg" xmlns:xlink="http://www.w3.org/1999/xlink" preserveAspectRatio="xMidYMid meet" viewBox="11.402372448979719 44 229.19525510204053 164" width="225.2" height="160"><defs><path d="M237.6 95L187.6 95L187.6 45L237.6 45L237.6 95Z" id="bI6Nf60N9"></path><path d="M182.59 95L132.59 95L132.59 45L182.59 45L182.59 95Z" id="a8FFhKgd0c"></path><path d="M127.59 95L77.59 95L77.59 45L127.59 45L127.59 95Z" id="a9qyl7Isz"></path><path d="M237.6 150L187.6 150L187.6 100L237.6 100L237.6 150Z" id="a1kzUBS4Ji"></path><path d="M182.59 150L132.59 150L132.59 100L182.59 100L182.59 150Z" id="e7QCwVpLSq"></path><path d="M182.59 205L132.59 205L132.59 155L182.59 155L182.59 205Z" id="c2ueZ9Eij"></path><path d="M237.6 205L187.6 205L187.6 155L237.6 155L237.6 205Z" id="a5ceqftta"></path><path d="M127.59 205L77.59 205L77.59 155L127.59 155L127.59 205Z" id="k81mfCtuC4"></path><text id="aVpRxCdSG" x="-100" y="-48.5" font-size="42" font-family="Baloo" font-weight="normal" font-style="normal" letter-spacing="0" alignment-baseline="before-edge" transform="matrix(1 0 0 1 112.40237244897972 139.5)" style="line-height:100%" xml:space="preserve" dominant-baseline="text-before-edge"><tspan x="-100" dy="0em" alignment-baseline="before-edge" dominant-baseline="text-before-edge" text-anchor="start">pnpm</tspan></text><style id="baloonormalnormal">
    
    </style></defs><g><g><use xlink:href="#bI6Nf60N9" opacity="1" fill="#f9ad00" fill-opacity="1"></use></g><g><use xlink:href="#a8FFhKgd0c" opacity="1" fill="#f9ad00" fill-opacity="1"></use></g><g><use xlink:href="#a9qyl7Isz" opacity="1" fill="#f9ad00" fill-opacity="1"></use></g><g><use xlink:href="#a1kzUBS4Ji" opacity="1" fill="#f9ad00" fill-opacity="1"></use></g><g><use xlink:href="#e7QCwVpLSq" opacity="1" fill="#4e4e4e" fill-opacity="1"></use></g><g><use xlink:href="#c2ueZ9Eij" opacity="1" fill="#4e4e4e" fill-opacity="1"></use></g><g><use xlink:href="#a5ceqftta" opacity="1" fill="#4e4e4e" fill-opacity="1"></use></g><g><use xlink:href="#k81mfCtuC4" opacity="1" fill="#4e4e4e" fill-opacity="1"></use></g><g id="dcCjbXu4M"><use xlink:href="#aVpRxCdSG" opacity="1" fill="#4e4e4e" fill-opacity="1"></use></g></g></svg>