<svg version="1.1" id="Layer_1" xmlns="http://www.w3.org/2000/svg" xmlns:xlink="http://www.w3.org/1999/xlink" x="0px" y="0px"
	 width="100%" viewBox="0 0 903 257" enable-background="new 0 0 903 257" xml:space="preserve">
<path fill="none" opacity="1.000000" stroke="none" 
	d="
M727.000000,258.000000 
	C484.666656,258.000000 242.833328,258.000000 1.000000,258.000000 
	C1.000000,172.333328 1.000000,86.666664 1.000000,1.000000 
	C302.000000,1.000000 603.000000,1.000000 904.000000,1.000000 
	C904.000000,86.666664 904.000000,172.333328 904.000000,258.000000 
	C845.166687,258.000000 786.333313,258.000000 727.000000,258.000000 
M588.500000,253.927902 
	C686.163391,253.934326 783.826782,253.947281 881.490173,253.938583 
	C893.095520,253.937546 900.912476,246.142258 900.968445,234.601105 
	C901.005615,226.934845 900.972656,219.268265 900.973450,211.601822 
	C900.979919,148.937042 901.049927,86.272057 900.840759,23.607996 
	C900.827942,19.755760 899.237183,15.553204 897.284546,12.140739 
	C893.759827,5.980688 887.674011,4.919057 880.878479,4.921453 
	C609.053345,5.017269 337.228180,5.003357 65.403038,5.003843 
	C51.403461,5.003868 37.403629,4.955017 23.404392,5.024892 
	C13.481638,5.074419 6.034120,12.504768 6.031128,22.471506 
	C6.009820,93.469345 6.019045,164.467255 6.142153,235.464905 
	C6.146829,238.161224 6.967751,241.078110 8.177155,243.509827 
	C12.222075,251.642792 19.272776,254.024017 28.016886,254.019257 
	C214.511215,253.917938 401.005615,253.934204 588.500000,253.927902 
z"/>
<path fill="#23272E" opacity="1.000000" stroke="none" 
	d="
M588.000000,253.927734 
	C401.005615,253.934204 214.511215,253.917938 28.016886,254.019257 
	C19.272776,254.024017 12.222075,251.642792 8.177155,243.509827 
	C6.967751,241.078110 6.146829,238.161224 6.142153,235.464905 
	C6.019045,164.467255 6.009820,93.469345 6.031128,22.471506 
	C6.034120,12.504768 13.481638,5.074419 23.404392,5.024892 
	C37.403629,4.955017 51.403461,5.003868 65.403038,5.003843 
	C337.228180,5.003357 609.053345,5.017269 880.878479,4.921453 
	C887.674011,4.919057 893.759827,5.980688 897.284546,12.140739 
	C899.237183,15.553204 900.827942,19.755760 900.840759,23.607996 
	C901.049927,86.272057 900.979919,148.937042 900.973450,211.601822 
	C900.972656,219.268265 901.005615,226.934845 900.968445,234.601105 
	C900.912476,246.142258 893.095520,253.937546 881.490173,253.938583 
	C783.826782,253.947281 686.163391,253.934326 588.000000,253.927734 
M194.764404,149.292496 
	C195.207642,151.184326 195.650894,153.076141 196.071304,155.648865 
	C197.820969,159.353210 199.271774,157.332474 200.352203,155.275116 
	C201.220978,153.620834 201.625458,151.722748 202.456116,149.287323 
	C203.406342,150.940033 203.960098,151.903168 204.560410,153.419342 
	C204.631638,153.590073 204.702866,153.760818 204.670105,154.408386 
	C205.002060,155.139008 205.334015,155.869614 206.235550,157.101624 
	C207.012939,157.028030 208.405502,157.121475 208.477493,156.856339 
	C210.164581,150.643463 211.708969,144.391830 213.279617,138.147339 
	C212.529984,137.931274 211.780350,137.715210 211.030716,137.499130 
	C208.273865,140.603470 208.856857,145.001770 207.151779,148.972015 
	C206.553818,148.288498 205.929947,147.625687 205.363663,146.916855 
	C204.414108,145.728241 203.501266,144.510284 202.572968,143.304688 
	C201.733643,144.395569 200.984802,145.575531 200.026291,146.549042 
	C199.262772,147.324493 198.243362,147.847992 197.357712,147.845840 
	C197.218262,147.224243 197.078796,146.602631 197.079453,145.550156 
	C196.802399,144.854630 196.525360,144.159103 196.285004,142.834061 
	C196.168808,142.216675 196.052628,141.599274 196.053391,140.545273 
	C195.784561,139.853500 195.515732,139.161728 194.633148,137.947433 
	C190.988922,138.150192 193.154785,140.500229 192.986557,142.447388 
	C193.256531,143.109482 193.526489,143.771591 193.770401,144.964050 
	C193.844879,145.308807 193.919342,145.653549 193.896759,146.449295 
	C194.179718,147.150284 194.462662,147.851273 194.764404,149.292496 
M567.863220,157.254852 
	C568.243103,152.503647 568.622986,147.752426 569.158081,142.570007 
	C568.845642,141.893692 568.533264,141.217361 568.110901,140.039612 
	C567.757446,139.685303 567.403931,139.330994 566.871521,138.571686 
	C566.232727,138.335587 565.593994,138.099503 564.246948,137.655731 
	C563.518738,137.720200 562.790588,137.784668 561.424561,137.773880 
	C560.488586,138.029633 559.289185,138.790115 558.658447,138.460983 
	C553.797546,135.924225 554.307068,139.366608 554.279602,142.241806 
	C554.255920,144.715332 554.012207,147.225113 554.344543,149.653336 
	C554.704468,152.283112 555.618835,154.836990 556.291382,157.423935 
	C556.850098,154.926117 557.406677,152.427826 557.968079,149.930603 
	C558.638000,146.950897 559.311951,143.972092 560.630127,140.868256 
	C564.274719,139.853363 565.690552,141.764496 565.914429,145.792053 
	C566.257202,149.595200 566.599976,153.398361 567.863220,157.254852 
M123.740128,82.592690 
	C132.769241,82.307465 138.885803,78.144417 141.402191,70.571587 
	C143.704605,63.642738 141.628647,56.244072 136.072342,51.576035 
	C130.379074,46.792938 122.572403,46.138763 115.988159,49.893040 
	C109.842514,53.397228 106.263672,60.819981 107.403275,67.698647 
	C108.681931,75.416634 114.022095,80.521927 123.740128,82.592690 
M83.699127,67.965981 
	C84.293015,57.987114 79.887245,50.922455 71.392876,48.232872 
	C63.822094,45.835724 55.139107,49.163181 51.215733,56.141705 
	C47.641964,62.498383 47.783634,68.965393 51.900963,74.945663 
	C55.883865,80.730690 61.706280,83.464478 68.714882,82.393738 
	C76.526283,81.200340 81.439705,76.421349 83.699127,67.965981 
M200.857483,63.745758 
	C198.905609,51.658222 188.436829,44.618271 177.864914,48.283924 
	C169.390625,51.222256 164.325851,59.817127 166.036102,68.357346 
	C167.813171,77.231186 176.004364,83.389633 184.957794,82.583397 
	C193.948074,81.773842 200.382797,74.507072 200.857483,63.745758 
M628.264160,156.436920 
	C631.356262,157.888596 633.371399,157.708481 633.121094,153.492676 
	C632.923889,150.170776 633.686462,146.583344 632.652954,143.586166 
	C631.838379,141.224045 629.252563,138.703461 626.879272,137.850327 
	C624.150085,136.869263 620.451660,136.681168 618.210693,140.614914 
	C621.773315,142.253952 626.785400,137.978745 629.332458,143.955429 
	C626.519348,144.284485 624.148743,144.016861 622.364624,144.914734 
	C620.342346,145.932449 617.878540,147.749771 617.392517,149.671158 
	C616.906982,151.590744 618.007080,155.170944 619.535461,156.034241 
	C621.633667,157.219330 624.789978,156.531006 628.264160,156.436920 
M409.509644,156.709930 
	C409.747437,152.743713 409.607849,148.699295 410.405670,144.849136 
	C410.732635,143.271286 413.083984,142.112946 414.514435,140.763763 
	C415.611481,142.192780 417.348083,143.494507 417.663391,145.079086 
	C418.206726,147.809464 417.742645,150.724823 417.948547,153.544495 
	C418.048096,154.906937 418.709290,156.228348 419.116180,157.568329 
	C419.794067,157.476517 420.471924,157.384689 421.149811,157.292877 
	C421.253448,151.429169 422.659119,145.477142 419.837708,139.771759 
	C419.236023,138.555023 416.825806,137.756973 415.185425,137.637772 
	C412.530640,137.444839 409.823364,137.973862 406.589722,138.243820 
	C406.589722,143.813278 406.502930,149.441650 406.695770,155.060425 
	C406.720886,155.791382 408.186554,156.472870 409.509644,156.709930 
M92.925682,155.288345 
	C93.031006,151.628693 92.765648,147.900192 93.426315,144.343704 
	C93.686165,142.944946 95.881432,141.356888 97.460327,140.987396 
	C98.230576,140.807159 100.262596,143.083771 100.569122,144.498428 
	C101.122566,147.052582 100.701553,149.802505 100.896217,152.455338 
	C101.021278,154.159607 101.519600,155.836456 102.046654,158.525986 
	C104.924042,154.034637 105.202599,142.411514 102.875015,139.852219 
	C101.784935,138.653625 99.827423,137.778183 98.191727,137.647278 
	C95.532082,137.434402 92.813850,137.953415 89.528336,138.209686 
	C89.528336,143.766479 89.401970,149.390335 89.585808,155.004028 
	C89.668076,157.516129 90.813118,158.576828 92.925682,155.288345 
M512.567627,141.092987 
	C512.284302,144.640518 511.231232,148.339188 511.891479,151.701447 
	C512.981934,157.254486 519.534485,159.349289 524.140015,156.197830 
	C528.169006,153.440872 529.041260,144.407547 525.678894,140.260529 
	C522.668579,136.547668 517.469910,136.642975 512.567627,141.092987 
M309.272400,149.273300 
	C310.002655,150.386749 310.732880,151.500198 311.463104,152.613647 
	C310.174652,153.247162 308.922089,154.301468 307.589294,154.415146 
	C305.614227,154.583588 303.582245,154.085098 301.024231,153.811737 
	C303.602417,157.532257 308.310699,158.833588 311.718689,156.675705 
	C313.401733,155.610016 315.065155,153.189789 315.138580,151.319702 
	C315.198486,149.793274 313.090607,147.914642 311.550812,146.684006 
	C310.478821,145.827271 308.639343,146.003143 307.336426,145.338165 
	C306.441711,144.881516 305.134613,143.462494 305.319519,143.019882 
	C305.737244,142.019867 306.895111,140.799713 307.878448,140.676147 
	C309.886536,140.423798 311.978088,140.835602 314.244202,140.987885 
	C312.586884,137.569672 308.092743,136.188446 304.726410,138.314911 
	C303.173279,139.296036 301.685425,141.571793 301.605133,143.326309 
	C301.537659,144.800064 303.351501,146.596405 304.719635,147.815369 
	C305.615936,148.613937 307.202209,148.638077 309.272400,149.273300 
M454.894836,133.434006 
	C455.167206,139.690186 455.482147,145.944931 455.695587,152.203125 
	C455.818481,155.807648 456.701233,159.808762 450.955322,161.063019 
	C458.005981,163.318970 459.031891,162.666565 459.047852,156.685669 
	C459.066498,149.692719 459.078888,142.699509 459.043579,135.706680 
	C459.014252,129.907288 457.208496,128.944366 451.337006,132.006943 
	C452.470947,132.473480 453.296570,132.813171 454.894836,133.434006 
M55.405704,157.079239 
	C55.389652,151.916656 55.324322,146.753586 55.373901,141.591629 
	C55.410362,137.796021 53.976204,133.421906 59.023197,130.912933 
	C56.867741,130.912933 54.712284,130.912933 51.933407,130.912933 
	C51.933407,140.032532 51.859066,148.994614 52.010513,157.952881 
	C52.034271,159.358139 52.781799,161.623596 53.724678,161.947205 
	C55.353554,162.506332 57.398006,161.854736 60.217346,161.638184 
	C57.887089,159.820129 56.693352,158.888779 55.405704,157.079239 
M546.484314,157.666412 
	C547.323792,157.234985 548.163330,156.803558 549.002808,156.372147 
	C542.328674,155.920776 542.761230,151.512177 542.943787,147.237106 
	C543.007690,145.740479 543.172363,144.197159 542.897217,142.750000 
	C542.557129,140.960571 542.233032,138.175369 541.139832,137.741714 
	C539.239319,136.987808 536.754395,137.706909 535.007324,137.786087 
	C536.704712,140.318665 538.926514,142.135178 538.995483,144.030136 
	C539.171570,148.863235 541.926575,155.418457 532.164062,155.810150 
	C532.519592,156.434067 532.875122,157.057983 533.230652,157.681900 
	C537.386658,157.681900 541.542603,157.681900 546.484314,157.666412 
M501.420990,141.091110 
	C500.231689,136.791550 496.973267,136.030563 492.546356,139.378342 
	C494.457367,139.838684 496.091827,140.232407 497.992676,140.690308 
	C497.992676,145.007095 497.729126,149.161667 498.059418,153.268494 
	C498.471497,158.392044 497.493317,162.105103 491.431641,162.340256 
	C491.308746,162.345032 491.207336,162.903885 491.096863,163.201721 
	C496.340668,166.234787 500.934692,163.976822 501.300476,157.902802 
	C501.619324,152.608078 501.405273,147.281281 501.420990,141.091110 
M670.472717,142.638626 
	C669.037231,135.223602 667.125305,132.089249 662.781006,131.005600 
	C668.358337,141.355820 668.358276,151.518219 662.861145,161.746460 
	C668.101990,160.988556 671.413025,152.629349 670.472717,142.638626 
M583.286621,146.467163 
	C584.303528,141.233826 585.320374,136.000488 586.337219,130.767151 
	C580.293091,135.937805 578.811340,142.739761 579.938904,150.109619 
	C580.640076,154.692429 581.488037,159.598404 586.707886,162.595184 
	C585.447083,156.971252 584.372925,152.179794 583.286621,146.467163 
M141.612061,153.262924 
	C139.756454,150.693542 137.996674,150.994873 137.119904,153.838486 
	C136.332657,156.391800 136.203018,159.147858 135.655792,162.624405 
	C140.421021,160.811935 140.879822,157.218567 141.612061,153.262924 
M246.432709,157.174347 
	C246.691864,156.402420 247.308243,155.532486 247.129425,154.880737 
	C246.835083,153.808105 246.025909,152.876740 245.433762,151.885803 
	C244.553543,152.743576 243.217056,153.454971 242.885452,154.488724 
	C242.131027,156.840668 241.870041,159.350906 241.408508,161.796799 
	C241.900803,162.022781 242.393112,162.248764 242.885406,162.474747 
	C243.966583,160.914185 245.047775,159.353607 246.432709,157.174347 
M348.376892,154.873383 
	C347.999054,157.204651 347.621216,159.535919 347.243378,161.867188 
	C347.792267,162.119370 348.341125,162.371552 348.889984,162.623734 
	C350.246124,160.263336 351.809753,157.989456 352.849152,155.496979 
	C353.228333,154.587769 352.360596,153.158569 352.061707,151.966614 
	C350.851898,152.688354 349.642090,153.410095 348.376892,154.873383 
M689.079895,159.311874 
	C689.713989,157.783234 690.604126,156.298538 690.877197,154.707886 
	C691.019897,153.876328 690.054626,152.067032 689.630432,152.079529 
	C688.541565,152.111572 686.734680,152.711487 686.532593,153.446594 
	C685.782043,156.177368 685.562622,159.054092 685.143738,161.876007 
	C685.970276,162.518448 686.796814,163.160873 687.623352,163.803314 
	C688.008423,162.523514 688.393494,161.243713 689.079895,159.311874 
M602.576050,134.984985 
	C602.217896,133.971130 601.920898,132.925491 601.429382,131.981079 
	C601.363159,131.853729 600.142578,132.049667 599.757996,132.414078 
	C598.212646,133.878159 599.320251,139.627457 602.029358,141.662415 
	C602.239990,139.408539 602.411011,137.578217 602.576050,134.984985 
M119.845612,136.515717 
	C119.973061,138.060364 120.100510,139.605026 120.258438,141.519089 
	C124.026367,138.910934 124.138153,134.655090 120.458038,131.300552 
	C120.211670,133.105072 120.029282,134.440964 119.845612,136.515717 
M331.078857,140.007080 
	C331.988525,140.209946 332.898163,140.412827 333.807831,140.615692 
	C333.813385,137.885269 333.850220,135.153687 333.749023,132.427216 
	C333.742706,132.258041 332.651245,132.129135 332.064636,131.981491 
	C331.673309,133.942657 331.261200,135.900085 330.905762,137.867737 
	C330.820740,138.338333 330.924469,138.843033 331.078857,140.007080 
M186.473373,132.682434 
	C185.362885,133.063782 183.460938,133.236450 183.294724,133.866791 
	C182.848801,135.557892 182.985748,137.466461 183.225739,139.243469 
	C183.322769,139.962036 184.289185,140.563202 184.859970,141.217789 
	C185.468857,140.588715 186.519302,140.012650 186.602402,139.320435 
	C186.835754,137.376617 186.670425,135.384949 186.473373,132.682434 
M116.708107,134.153793 
	C116.070572,133.373627 115.433037,132.593445 114.795502,131.813263 
	C114.221886,132.635590 113.087547,133.526642 113.178383,134.267517 
	C113.466263,136.615707 114.211700,138.907822 114.780220,141.221619 
	C115.430496,139.127213 116.080780,137.032806 116.708107,134.153793 
M438.466522,141.141235 
	C438.760406,138.229965 439.067474,135.319611 439.271576,132.402054 
	C439.276642,132.329330 438.143250,132.176987 437.540771,132.061783 
	C437.257690,134.748520 436.938110,137.432632 436.743256,140.125763 
	C436.721802,140.422363 437.414459,140.770660 438.466522,141.141235 
M394.369354,138.044769 
	C394.921051,139.072250 395.472717,140.099731 396.024414,141.127213 
	C396.589478,139.952988 397.658142,138.756042 397.606476,137.609619 
	C397.520020,135.691666 396.718414,133.805954 396.217834,131.906677 
	C395.599548,133.695419 394.981293,135.484161 394.369354,138.044769 
M225.277466,133.372345 
	C225.248627,134.029175 225.059021,134.728821 225.220474,135.334961 
	C225.748077,137.316040 226.403595,139.263077 227.009933,141.223190 
	C227.616837,139.099274 228.250320,136.982330 228.809341,134.845871 
	C228.928177,134.391800 228.904053,133.496597 228.726990,133.435165 
	C227.674347,133.069946 226.557404,132.890060 225.277466,133.372345 
M290.013123,141.040909 
	C294.546295,138.661530 291.089172,135.072250 291.084106,131.963623 
	C287.682404,134.244492 288.655243,137.504181 290.013123,141.040909 
M74.133247,134.319946 
	C73.444839,133.433304 72.756432,132.546646 71.417236,130.821808 
	C71.417236,135.207962 71.417236,138.154251 71.417236,141.100540 
	C72.045799,141.153885 72.674362,141.207230 73.302925,141.260590 
	C73.585571,139.190521 73.868210,137.120453 74.133247,134.319946 
M179.944382,135.712967 
	C179.920609,134.898575 180.099869,134.000580 179.809647,133.295929 
	C179.571991,132.718918 178.775040,132.372269 178.226028,131.923492 
	C177.690536,132.607941 176.676529,133.313690 176.705902,133.973007 
	C176.809662,136.303177 177.258850,138.619537 177.671112,140.924301 
	C177.680344,140.975800 179.296890,140.938492 179.339249,140.753647 
	C179.657639,139.364441 179.768860,137.927750 179.944382,135.712967 
M221.995331,135.711060 
	C221.259155,134.507980 220.522995,133.304916 219.786819,132.101837 
	C219.436157,134.119095 218.820633,136.139084 218.841354,138.152512 
	C218.852524,139.234268 219.956161,140.304749 220.566833,141.380325 
	C220.964935,141.205032 221.363052,141.029724 221.761154,140.854431 
	C221.839340,139.404892 221.917511,137.955368 221.995331,135.711060 
M648.697632,132.141296 
	C648.479431,134.564453 648.165710,136.985626 648.115601,139.412247 
	C648.104187,139.962921 648.936768,140.633255 649.524536,141.041794 
	C649.747253,141.196579 650.754272,140.784531 650.762329,140.602417 
	C650.894226,137.628021 653.105103,134.285568 648.697632,132.141296 
M605.847961,134.313599 
	C606.172180,136.639832 606.496338,138.966064 606.820557,141.292297 
	C607.582703,141.203232 608.344849,141.114182 609.106995,141.025116 
	C609.106995,138.630753 609.407288,136.188690 609.036194,133.853287 
	C608.488159,130.404221 607.139221,131.390182 605.847961,134.313599 
M433.267181,133.566086 
	C431.978943,131.276840 430.631470,130.548553 430.121490,133.868484 
	C429.762634,136.204575 430.052185,138.640274 430.052185,141.031494 
	C430.822571,141.118393 431.592957,141.205307 432.363342,141.292206 
	C432.684296,138.959290 433.005280,136.626373 433.267181,133.566086 
M387.963257,134.166641 
	C387.963257,136.432480 387.963257,138.698318 387.963257,140.964172 
	C388.465851,141.119415 388.968445,141.274673 389.471039,141.429916 
	C390.056000,140.288193 391.128876,139.141891 391.118256,138.005737 
	C391.099579,136.010452 390.417542,134.021378 390.013336,132.029694 
	C389.340698,132.487457 388.668030,132.945221 387.963257,134.166641 
z"/>
<path fill="#F9BA2E" opacity="1.000000" stroke="none" 
	d="
M123.325516,82.558456 
	C114.022095,80.521927 108.681931,75.416634 107.403275,67.698647 
	C106.263672,60.819981 109.842514,53.397228 115.988159,49.893040 
	C122.572403,46.138763 130.379074,46.792938 136.072342,51.576035 
	C141.628647,56.244072 143.704605,63.642738 141.402191,70.571587 
	C138.885803,78.144417 132.769241,82.307465 123.325516,82.558456 
z"/>
<path fill="#F95D59" opacity="1.000000" stroke="none" 
	d="
M83.614220,68.374268 
	C81.439705,76.421349 76.526283,81.200340 68.714882,82.393738 
	C61.706280,83.464478 55.883865,80.730690 51.900963,74.945663 
	C47.783634,68.965393 47.641964,62.498383 51.215733,56.141705 
	C55.139107,49.163181 63.822094,45.835724 71.392876,48.232872 
	C79.887245,50.922455 84.293015,57.987114 83.614220,68.374268 
z"/>
<path fill="#2AC543" opacity="1.000000" stroke="none" 
	d="
M200.866913,64.176102 
	C200.382797,74.507072 193.948074,81.773842 184.957794,82.583397 
	C176.004364,83.389633 167.813171,77.231186 166.036102,68.357346 
	C164.325851,59.817127 169.390625,51.222256 177.864914,48.283924 
	C188.436829,44.618271 198.905609,51.658222 200.866913,64.176102 
z"/>
<path fill="#86AB6E" opacity="1.000000" stroke="none" 
	d="
M627.878540,156.541199 
	C624.789978,156.531006 621.633667,157.219330 619.535461,156.034241 
	C618.007080,155.170944 616.906982,151.590744 617.392517,149.671158 
	C617.878540,147.749771 620.342346,145.932449 622.364624,144.914734 
	C624.148743,144.016861 626.519348,144.284485 629.332458,143.955429 
	C626.785400,137.978745 621.773315,142.253952 618.210693,140.614914 
	C620.451660,136.681168 624.150085,136.869263 626.879272,137.850327 
	C629.252563,138.703461 631.838379,141.224045 632.652954,143.586166 
	C633.686462,146.583344 632.923889,150.170776 633.121094,153.492676 
	C633.371399,157.708481 631.356262,157.888596 627.878540,156.541199 
M626.558105,147.091553 
	C625.730713,147.149002 624.633423,146.891495 624.128052,147.324646 
	C622.771545,148.487289 621.322327,149.796524 620.647522,151.364899 
	C620.403076,151.932846 622.399902,154.378830 623.117798,154.270447 
	C625.028320,153.982040 627.218262,153.144226 628.448120,151.766800 
	C629.057434,151.084351 627.797852,148.733353 626.558105,147.091553 
z"/>
<path fill="#86AB6E" opacity="1.000000" stroke="none" 
	d="
M409.247314,156.943604 
	C408.186554,156.472870 406.720886,155.791382 406.695770,155.060425 
	C406.502930,149.441650 406.589722,143.813278 406.589722,138.243820 
	C409.823364,137.973862 412.530640,137.444839 415.185425,137.637772 
	C416.825806,137.756973 419.236023,138.555023 419.837708,139.771759 
	C422.659119,145.477142 421.253448,151.429169 421.149811,157.292877 
	C420.471924,157.384689 419.794067,157.476517 419.116180,157.568329 
	C418.709290,156.228348 418.048096,154.906937 417.948547,153.544495 
	C417.742645,150.724823 418.206726,147.809464 417.663391,145.079086 
	C417.348083,143.494507 415.611481,142.192780 414.514435,140.763763 
	C413.083984,142.112946 410.732635,143.271286 410.405670,144.849136 
	C409.607849,148.699295 409.747437,152.743713 409.247314,156.943604 
z"/>
<path fill="#87AD6E" opacity="1.000000" stroke="none" 
	d="
M92.860313,155.649963 
	C90.813118,158.576828 89.668076,157.516129 89.585808,155.004028 
	C89.401970,149.390335 89.528336,143.766479 89.528336,138.209686 
	C92.813850,137.953415 95.532082,137.434402 98.191727,137.647278 
	C99.827423,137.778183 101.784935,138.653625 102.875015,139.852219 
	C105.202599,142.411514 104.924042,154.034637 102.046654,158.525986 
	C101.519600,155.836456 101.021278,154.159607 100.896217,152.455338 
	C100.701553,149.802505 101.122566,147.052582 100.569122,144.498428 
	C100.262596,143.083771 98.230576,140.807159 97.460327,140.987396 
	C95.881432,141.356888 93.686165,142.944946 93.426315,144.343704 
	C92.765648,147.900192 93.031006,151.628693 92.860313,155.649963 
z"/>
<path fill="#579AD1" opacity="1.000000" stroke="none" 
	d="
M512.776855,140.793121 
	C517.469910,136.642975 522.668579,136.547668 525.678894,140.260529 
	C529.041260,144.407547 528.169006,153.440872 524.140015,156.197830 
	C519.534485,159.349289 512.981934,157.254486 511.891479,151.701447 
	C511.231232,148.339188 512.284302,144.640518 512.776855,140.793121 
M514.669434,146.676163 
	C514.969727,148.455292 514.705811,150.731812 515.719727,151.881805 
	C516.867676,153.183868 519.508667,154.488678 520.891724,154.015015 
	C524.906128,152.640198 524.566589,148.648682 523.808777,145.553696 
	C523.332153,143.607193 521.000977,142.114792 519.501770,140.418671 
	C517.915833,142.228683 516.329895,144.038696 514.669434,146.676163 
z"/>
<path fill="#87AD6E" opacity="1.000000" stroke="none" 
	d="
M308.875916,149.141174 
	C307.202209,148.638077 305.615936,148.613937 304.719635,147.815369 
	C303.351501,146.596405 301.537659,144.800064 301.605133,143.326309 
	C301.685425,141.571793 303.173279,139.296036 304.726410,138.314911 
	C308.092743,136.188446 312.586884,137.569672 314.244202,140.987885 
	C311.978088,140.835602 309.886536,140.423798 307.878448,140.676147 
	C306.895111,140.799713 305.737244,142.019867 305.319519,143.019882 
	C305.134613,143.462494 306.441711,144.881516 307.336426,145.338165 
	C308.639343,146.003143 310.478821,145.827271 311.550812,146.684006 
	C313.090607,147.914642 315.198486,149.793274 315.138580,151.319702 
	C315.065155,153.189789 313.401733,155.610016 311.718689,156.675705 
	C308.310699,158.833588 303.602417,157.532257 301.024231,153.811737 
	C303.582245,154.085098 305.614227,154.583588 307.589294,154.415146 
	C308.922089,154.301468 310.174652,153.247162 311.463104,152.613647 
	C310.732880,151.500198 310.002655,150.386749 308.875916,149.141174 
z"/>
<path fill="#9BA2AE" opacity="1.000000" stroke="none" 
	d="
M454.508514,133.293442 
	C453.296570,132.813171 452.470947,132.473480 451.337006,132.006943 
	C457.208496,128.944366 459.014252,129.907288 459.043579,135.706680 
	C459.078888,142.699509 459.066498,149.692719 459.047852,156.685669 
	C459.031891,162.666565 458.005981,163.318970 450.955322,161.063019 
	C456.701233,159.808762 455.818481,155.807648 455.695587,152.203125 
	C455.482147,145.944931 455.167206,139.690186 454.508514,133.293442 
z"/>
<path fill="#99A0AC" opacity="1.000000" stroke="none" 
	d="
M55.452660,157.518341 
	C56.693352,158.888779 57.887089,159.820129 60.217346,161.638184 
	C57.398006,161.854736 55.353554,162.506332 53.724678,161.947205 
	C52.781799,161.623596 52.034271,159.358139 52.010513,157.952881 
	C51.859066,148.994614 51.933407,140.032532 51.933407,130.912933 
	C54.712284,130.912933 56.867741,130.912933 59.023197,130.912933 
	C53.976204,133.421906 55.410362,137.796021 55.373901,141.591629 
	C55.324322,146.753586 55.389652,151.916656 55.452660,157.518341 
z"/>
<path fill="#528EC1" opacity="1.000000" stroke="none" 
	d="
M546.091431,157.674164 
	C541.542603,157.681900 537.386658,157.681900 533.230652,157.681900 
	C532.875122,157.057983 532.519592,156.434067 532.164062,155.810150 
	C541.926575,155.418457 539.171570,148.863235 538.995483,144.030136 
	C538.926514,142.135178 536.704712,140.318665 535.007324,137.786087 
	C536.754395,137.706909 539.239319,136.987808 541.139832,137.741714 
	C542.233032,138.175369 542.557129,140.960571 542.897217,142.750000 
	C543.172363,144.197159 543.007690,145.740479 542.943787,147.237106 
	C542.761230,151.512177 542.328674,155.920776 549.002808,156.372147 
	C548.163330,156.803558 547.323792,157.234985 546.091431,157.674164 
z"/>
<path fill="#599ED6" opacity="1.000000" stroke="none" 
	d="
M501.423828,141.529877 
	C501.405273,147.281281 501.619324,152.608078 501.300476,157.902802 
	C500.934692,163.976822 496.340668,166.234787 491.096863,163.201721 
	C491.207336,162.903885 491.308746,162.345032 491.431641,162.340256 
	C497.493317,162.105103 498.471497,158.392044 498.059418,153.268494 
	C497.729126,149.161667 497.992676,145.007095 497.992676,140.690308 
	C496.091827,140.232407 494.457367,139.838684 492.546356,139.378342 
	C496.973267,136.030563 500.231689,136.791550 501.423828,141.529877 
z"/>
<path fill="#9198A4" opacity="1.000000" stroke="none" 
	d="
M670.558105,143.015594 
	C671.413025,152.629349 668.101990,160.988556 662.861145,161.746460 
	C668.358276,151.518219 668.358337,141.355820 662.781006,131.005600 
	C667.125305,132.089249 669.037231,135.223602 670.558105,143.015594 
z"/>
<path fill="#949AA6" opacity="1.000000" stroke="none" 
	d="
M583.292725,146.927750 
	C584.372925,152.179794 585.447083,156.971252 586.707886,162.595184 
	C581.488037,159.598404 580.640076,154.692429 579.938904,150.109619 
	C578.811340,142.739761 580.293091,135.937805 586.337219,130.767151 
	C585.320374,136.000488 584.303528,141.233826 583.292725,146.927750 
z"/>
<path fill="#528EC1" opacity="1.000000" stroke="none" 
	d="
M559.984070,140.992889 
	C559.311951,143.972092 558.638000,146.950897 557.968079,149.930603 
	C557.406677,152.427826 556.850098,154.926117 556.291382,157.423950 
	C555.618835,154.836990 554.704468,152.283112 554.344543,149.653336 
	C554.012207,147.225113 554.255920,144.715332 554.279602,142.241806 
	C554.307068,139.366608 553.797546,135.924225 558.658447,138.460983 
	C559.289185,138.790115 560.488586,138.029633 561.544800,138.013184 
	C561.104675,139.165955 560.544373,140.079422 559.984070,140.992889 
z"/>
<path fill="#789965" opacity="1.000000" stroke="none" 
	d="
M204.513870,152.866302 
	C203.960098,151.903168 203.406342,150.940033 202.456116,149.287323 
	C201.625458,151.722748 201.220978,153.620834 200.352203,155.275116 
	C199.271774,157.332474 197.820969,159.353210 196.368225,155.148056 
	C196.889297,152.592606 197.113419,150.537964 197.337540,148.483322 
	C198.243362,147.847992 199.262772,147.324493 200.026291,146.549042 
	C200.984802,145.575531 201.733643,144.395569 202.572968,143.304688 
	C203.501266,144.510284 204.414108,145.728241 205.363663,146.916855 
	C205.929947,147.625687 206.553818,148.288498 207.540344,149.274292 
	C206.790558,150.673157 205.652222,151.769730 204.513870,152.866302 
z"/>
<path fill="#89AF6F" opacity="1.000000" stroke="none" 
	d="
M204.537140,153.142822 
	C205.652222,151.769730 206.790558,150.673157 207.903366,149.185745 
	C208.856857,145.001770 208.273865,140.603470 211.030716,137.499130 
	C211.780350,137.715210 212.529984,137.931274 213.279617,138.147339 
	C211.708969,144.391830 210.164581,150.643463 208.477493,156.856339 
	C208.405502,157.121475 207.012939,157.028030 205.943207,156.487930 
	C205.358597,155.226669 205.066330,154.579117 204.774078,153.931549 
	C204.702866,153.760818 204.631638,153.590073 204.537140,153.142822 
z"/>
<path fill="#9198A4" opacity="1.000000" stroke="none" 
	d="
M141.650665,153.563568 
	C140.879822,157.218567 140.421021,160.811935 135.655792,162.624405 
	C136.203018,159.147858 136.332657,156.391800 137.119904,153.838486 
	C137.996674,150.994873 139.756454,150.693542 141.650665,153.563568 
z"/>
<path fill="#99A0AC" opacity="1.000000" stroke="none" 
	d="
M246.280823,157.483704 
	C245.047775,159.353607 243.966583,160.914185 242.885406,162.474747 
	C242.393112,162.248764 241.900803,162.022781 241.408508,161.796799 
	C241.870041,159.350906 242.131027,156.840668 242.885452,154.488724 
	C243.217056,153.454971 244.553543,152.743576 245.433777,151.885803 
	C246.025909,152.876740 246.835083,153.808105 247.129425,154.880737 
	C247.308243,155.532486 246.691864,156.402420 246.280823,157.483704 
z"/>
<path fill="#9198A4" opacity="1.000000" stroke="none" 
	d="
M348.404572,154.502625 
	C349.642090,153.410095 350.851898,152.688354 352.061707,151.966614 
	C352.360596,153.158569 353.228333,154.587769 352.849152,155.496979 
	C351.809753,157.989456 350.246124,160.263336 348.889984,162.623734 
	C348.341125,162.371552 347.792267,162.119370 347.243378,161.867188 
	C347.621216,159.535919 347.999054,157.204651 348.404572,154.502625 
z"/>
<path fill="#949AA6" opacity="1.000000" stroke="none" 
	d="
M688.929199,159.637894 
	C688.393494,161.243713 688.008423,162.523514 687.623352,163.803314 
	C686.796814,163.160873 685.970276,162.518448 685.143738,161.876007 
	C685.562622,159.054092 685.782043,156.177368 686.532593,153.446594 
	C686.734680,152.711487 688.541565,152.111572 689.630432,152.079529 
	C690.054626,152.067032 691.019897,153.876328 690.877197,154.707886 
	C690.604126,156.298538 689.713989,157.783234 688.929199,159.637894 
z"/>
<path fill="#83A66B" opacity="1.000000" stroke="none" 
	d="
M602.579041,135.366440 
	C602.411011,137.578217 602.239990,139.408539 602.029358,141.662415 
	C599.320251,139.627457 598.212646,133.878159 599.757996,132.414078 
	C600.142578,132.049667 601.363159,131.853729 601.429382,131.981079 
	C601.920898,132.925491 602.217896,133.971130 602.579041,135.366440 
z"/>
<path fill="#5A9FD8" opacity="1.000000" stroke="none" 
	d="
M560.307129,140.930573 
	C560.544373,140.079422 561.104675,139.165955 561.863647,138.050812 
	C562.790588,137.784668 563.518738,137.720200 564.822937,137.964752 
	C565.949402,138.508087 566.499939,138.742386 567.050415,138.976685 
	C567.403931,139.330994 567.757446,139.685303 568.173096,140.621338 
	C568.491150,141.802444 568.747009,142.401825 569.002869,143.001221 
	C568.622986,147.752426 568.243103,152.503647 567.394775,156.759384 
	C566.644836,152.516205 566.363342,148.768494 566.081848,145.020782 
	C565.690552,141.764496 564.274719,139.853363 560.307129,140.930573 
z"/>
<path fill="#86AB6E" opacity="1.000000" stroke="none" 
	d="
M119.846252,136.146286 
	C120.029282,134.440964 120.211670,133.105072 120.458038,131.300552 
	C124.138153,134.655090 124.026367,138.910934 120.258438,141.519089 
	C120.100510,139.605026 119.973061,138.060364 119.846252,136.146286 
z"/>
<path fill="#89AF6F" opacity="1.000000" stroke="none" 
	d="
M331.010132,139.669556 
	C330.924469,138.843033 330.820740,138.338333 330.905762,137.867737 
	C331.261200,135.900085 331.673309,133.942657 332.064636,131.981491 
	C332.651245,132.129135 333.742706,132.258041 333.749023,132.427216 
	C333.850220,135.153687 333.813385,137.885269 333.807831,140.615692 
	C332.898163,140.412827 331.988525,140.209946 331.010132,139.669556 
z"/>
<path fill="#789965" opacity="1.000000" stroke="none" 
	d="
M186.567871,133.047287 
	C186.670425,135.384949 186.835754,137.376617 186.602402,139.320435 
	C186.519302,140.012650 185.468857,140.588715 184.859970,141.217789 
	C184.289185,140.563202 183.322769,139.962036 183.225739,139.243469 
	C182.985748,137.466461 182.848801,135.557892 183.294724,133.866791 
	C183.460938,133.236450 185.362885,133.063782 186.567871,133.047287 
z"/>
<path fill="#789965" opacity="1.000000" stroke="none" 
	d="
M116.719589,134.546097 
	C116.080780,137.032806 115.430496,139.127213 114.780220,141.221619 
	C114.211700,138.907822 113.466263,136.615707 113.178383,134.267517 
	C113.087547,133.526642 114.221886,132.635590 114.795502,131.813263 
	C115.433037,132.593445 116.070572,133.373627 116.719589,134.546097 
z"/>
<path fill="#83A66B" opacity="1.000000" stroke="none" 
	d="
M438.121216,141.118103 
	C437.414459,140.770660 436.721802,140.422363 436.743256,140.125763 
	C436.938110,137.432632 437.257690,134.748520 437.540771,132.061783 
	C438.143250,132.176987 439.276642,132.329330 439.271576,132.402054 
	C439.067474,135.319611 438.760406,138.229965 438.121216,141.118103 
z"/>
<path fill="#83A66B" opacity="1.000000" stroke="none" 
	d="
M394.366211,137.658844 
	C394.981293,135.484161 395.599548,133.695419 396.217834,131.906677 
	C396.718414,133.805954 397.520020,135.691666 397.606476,137.609619 
	C397.658142,138.756042 396.589478,139.952988 396.024414,141.127213 
	C395.472717,140.099731 394.921051,139.072250 394.366211,137.658844 
z"/>
<path fill="#789965" opacity="1.000000" stroke="none" 
	d="
M225.369751,133.010132 
	C226.557404,132.890060 227.674347,133.069946 228.726990,133.435165 
	C228.904053,133.496597 228.928177,134.391800 228.809341,134.845871 
	C228.250320,136.982330 227.616837,139.099274 227.009933,141.223190 
	C226.403595,139.263077 225.748077,137.316040 225.220474,135.334961 
	C225.059021,134.728821 225.248627,134.029175 225.369751,133.010132 
z"/>
<path fill="#89AF6F" opacity="1.000000" stroke="none" 
	d="
M289.705322,140.876068 
	C288.655243,137.504181 287.682404,134.244492 291.084106,131.963623 
	C291.089172,135.072250 294.546295,138.661530 289.705322,140.876068 
z"/>
<path fill="#89AF6F" opacity="1.000000" stroke="none" 
	d="
M74.142052,134.685165 
	C73.868210,137.120453 73.585571,139.190521 73.302925,141.260590 
	C72.674362,141.207230 72.045799,141.153885 71.417236,141.100540 
	C71.417236,138.154251 71.417236,135.207962 71.417236,130.821808 
	C72.756432,132.546646 73.444839,133.433304 74.142052,134.685165 
z"/>
<path fill="#86AB6E" opacity="1.000000" stroke="none" 
	d="
M179.944611,136.109436 
	C179.768860,137.927750 179.657639,139.364441 179.339249,140.753647 
	C179.296890,140.938492 177.680344,140.975800 177.671112,140.924301 
	C177.258850,138.619537 176.809662,136.303177 176.705902,133.973007 
	C176.676529,133.313690 177.690536,132.607941 178.226028,131.923492 
	C178.775040,132.372269 179.571991,132.718918 179.809647,133.295929 
	C180.099869,134.000580 179.920609,134.898575 179.944611,136.109436 
z"/>
<path fill="#89AF6F" opacity="1.000000" stroke="none" 
	d="
M221.995514,136.108444 
	C221.917511,137.955368 221.839340,139.404892 221.761154,140.854431 
	C221.363052,141.029724 220.964935,141.205032 220.566833,141.380325 
	C219.956161,140.304749 218.852524,139.234268 218.841354,138.152512 
	C218.820633,136.139084 219.436157,134.119095 219.786819,132.101837 
	C220.522995,133.304916 221.259155,134.507980 221.995514,136.108444 
z"/>
<path fill="#89AF6F" opacity="1.000000" stroke="none" 
	d="
M649.036316,132.039536 
	C653.105103,134.285568 650.894226,137.628021 650.762329,140.602417 
	C650.754272,140.784531 649.747253,141.196579 649.524536,141.041794 
	C648.936768,140.633255 648.104187,139.962921 648.115601,139.412247 
	C648.165710,136.985626 648.479431,134.564453 649.036316,132.039536 
z"/>
<path fill="#89AF6F" opacity="1.000000" stroke="none" 
	d="
M605.874023,133.958847 
	C607.139221,131.390182 608.488159,130.404221 609.036194,133.853287 
	C609.407288,136.188690 609.106995,138.630753 609.106995,141.025116 
	C608.344849,141.114182 607.582703,141.203232 606.820557,141.292297 
	C606.496338,138.966064 606.172180,136.639832 605.874023,133.958847 
z"/>
<path fill="#86AB6E" opacity="1.000000" stroke="none" 
	d="
M433.296692,133.929779 
	C433.005280,136.626373 432.684296,138.959290 432.363342,141.292206 
	C431.592957,141.205307 430.822571,141.118393 430.052185,141.031494 
	C430.052185,138.640274 429.762634,136.204575 430.121490,133.868484 
	C430.631470,130.548553 431.978943,131.276840 433.296692,133.929779 
z"/>
<path fill="#87AD6E" opacity="1.000000" stroke="none" 
	d="
M387.979309,133.784821 
	C388.668030,132.945221 389.340698,132.487457 390.013336,132.029694 
	C390.417542,134.021378 391.099579,136.010452 391.118256,138.005737 
	C391.128876,139.141891 390.056000,140.288193 389.471039,141.429916 
	C388.968445,141.274673 388.465851,141.119415 387.963257,140.964172 
	C387.963257,138.698318 387.963257,136.432480 387.979309,133.784821 
z"/>
<path fill="#86AB6E" opacity="1.000000" stroke="none" 
	d="
M197.347626,148.164581 
	C197.113419,150.537964 196.889297,152.592606 196.379639,154.807617 
	C195.650894,153.076141 195.207642,151.184326 194.744644,148.580902 
	C194.481201,147.245651 194.237518,146.621979 193.993835,145.998306 
	C193.919342,145.653549 193.844879,145.308807 193.781128,144.379181 
	C193.568436,143.208710 193.345001,142.623123 193.121552,142.037521 
	C193.154785,140.500229 190.988922,138.150192 194.942673,138.542847 
	C195.480270,139.752808 195.708359,140.367340 195.936432,140.981888 
	C196.052628,141.599274 196.168808,142.216675 196.267181,143.484802 
	C196.479340,144.750702 196.709335,145.365875 196.939331,145.981033 
	C197.078796,146.602631 197.218262,147.224243 197.347626,148.164581 
z"/>
<path fill="#528EC1" opacity="1.000000" stroke="none" 
	d="
M565.998169,145.406418 
	C566.363342,148.768494 566.644836,152.516205 566.934570,156.732727 
	C566.599976,153.398361 566.257202,149.595200 565.998169,145.406418 
z"/>
<path fill="#789965" opacity="1.000000" stroke="none" 
	d="
M195.994904,140.763580 
	C195.708359,140.367340 195.480270,139.752808 195.249557,138.804108 
	C195.515732,139.161728 195.784561,139.853500 195.994904,140.763580 
z"/>
<path fill="#528EC1" opacity="1.000000" stroke="none" 
	d="
M566.960938,138.774200 
	C566.499939,138.742386 565.949402,138.508087 565.177063,138.068604 
	C565.593994,138.099503 566.232727,138.335587 566.960938,138.774200 
z"/>
<path fill="#528EC1" opacity="1.000000" stroke="none" 
	d="
M569.080444,142.785614 
	C568.747009,142.401825 568.491150,141.802444 568.228027,140.872055 
	C568.533264,141.217361 568.845642,141.893692 569.080444,142.785614 
z"/>
<path fill="#789965" opacity="1.000000" stroke="none" 
	d="
M193.054047,142.242462 
	C193.345001,142.623123 193.568436,143.208710 193.794159,144.113998 
	C193.526489,143.771591 193.256531,143.109482 193.054047,142.242462 
z"/>
<path fill="#789965" opacity="1.000000" stroke="none" 
	d="
M197.009399,145.765594 
	C196.709335,145.365875 196.479340,144.750702 196.248840,143.799561 
	C196.525360,144.159103 196.802399,144.854630 197.009399,145.765594 
z"/>
<path fill="#789965" opacity="1.000000" stroke="none" 
	d="
M193.945297,146.223801 
	C194.237518,146.621979 194.481201,147.245651 194.735245,148.210785 
	C194.462662,147.851273 194.179718,147.150284 193.945297,146.223801 
z"/>
<path fill="#789965" opacity="1.000000" stroke="none" 
	d="
M204.722092,154.169968 
	C205.066330,154.579117 205.358597,155.226669 205.658401,156.237244 
	C205.334015,155.869614 205.002060,155.139008 204.722092,154.169968 
z"/>
<path fill="#2F3735" opacity="1.000000" stroke="none" 
	d="
M626.970947,147.114410 
	C627.797852,148.733353 629.057434,151.084351 628.448120,151.766800 
	C627.218262,153.144226 625.028320,153.982040 623.117798,154.270447 
	C622.399902,154.378830 620.403076,151.932846 620.647522,151.364899 
	C621.322327,149.796524 622.771545,148.487289 624.128052,147.324646 
	C624.633423,146.891495 625.730713,147.149002 626.970947,147.114410 
z"/>
<path fill="#28313D" opacity="1.000000" stroke="none" 
	d="
M514.706665,146.262436 
	C516.329895,144.038696 517.915833,142.228683 519.501770,140.418671 
	C521.000977,142.114792 523.332153,143.607193 523.808777,145.553696 
	C524.566589,148.648682 524.906128,152.640198 520.891724,154.015015 
	C519.508667,154.488678 516.867676,153.183868 515.719727,151.881805 
	C514.705811,150.731812 514.969727,148.455292 514.706665,146.262436 
z"/>
</svg>